# xmcd
#
# Track frame offsets: 
#        150
#        18084
#        43848
#        62544
#        76848
#        89250
#        106335
#        125028
#        146388
#        158592
#        176245
#
# Disc length: 4202 seconds
#
# Revision: 0
# Processed by: cddbd v1.4PL0 Copyright (c) Steve Scherf et al.
# Submitted via: ExactAudioCopy v0.90b4
#
DISCID=8510680b
DTITLE=Blues Priority - So Long
DYEAR=1999
DGENRE=Blues
TTITLE0=So Long
TTITLE1=Blues with a Feeling
TTITLE2=Baby Broke with me
TTITLE3=Down the Lane
TTITLE4=She woke up in the Morning
TTITLE5=Before You Accuse Me
TTITLE6=Think that I'm in Love (With You)
TTITLE7=The Restaurant's gonna close
TTITLE8=One more Glass
TTITLE9=Help me Babe
TTITLE10=Nobody loves you when you're down and out
EXTD=
EXTT0=
EXTT1=
EXTT2=
EXTT3=
EXTT4=
EXTT5=
EXTT6=
EXTT7=
EXTT8=
EXTT9=
EXTT10=
PLAYORDER=
